<svg xmlns="http://www.w3.org/2000/svg"><symbol id="icon-heart" viewBox="521.939 473.064 12.545 11.99"><path d="M528.174 485.055a.737.737 0 0 1-.552-.249c-3.798-4.324-4.644-5.298-4.858-5.572h-.004a3.866 3.866 0 0 1-.821-2.373 3.803 3.803 0 0 1 3.799-3.799c.934 0 1.804.32 2.484.898a3.847 3.847 0 0 1 2.463-.898 3.803 3.803 0 0 1 3.799 3.799c0 .909-.318 1.754-.896 2.381l-4.86 5.561a.735.735 0 0 1-.554.252zm-4.245-6.706c.208.255 2.471 2.839 4.243 4.858l4.323-4.944c.34-.369.52-.86.52-1.399a2.333 2.333 0 0 0-2.33-2.331c-.729 0-1.421.344-1.9.943a.76.76 0 0 1-.585.275.727.727 0 0 1-.575-.294 2.333 2.333 0 0 0-1.887-.925 2.333 2.333 0 0 0-2.33 2.331c0 .678.275 1.171.507 1.467l.014.019z" fill="#d22856"/></symbol><symbol id="icon-menu-burger" viewBox="0 0 49.945 24.007"><path fill="#FFF" d="M1.137 0C.51 0 0 .428 0 1.01v1.981c0 .558.494 1.01 1.139 1.01H48.81c.628 0 1.138-.428 1.138-1.01V1.01c0-.558-.494-1.01-1.138-1.01H1.137zm0 10.003c-.627 0-1.137.428-1.137 1.01v1.98c0 .557.494 1.01 1.139 1.01H48.81c.628 0 1.138-.428 1.138-1.01v-1.98c0-.558-.494-1.01-1.138-1.01H1.137zm0 10.002C.51 20.005 0 20.434 0 21.016v1.981c0 .557.494 1.01 1.139 1.01H48.81c.628 0 1.138-.428 1.138-1.01v-1.981c0-.558-.494-1.011-1.138-1.011H1.137z"/><path fill="#FFF" d="M1.137 0C.51 0 0 .428 0 1.01v1.981c0 .558.494 1.01 1.139 1.01H48.81c.628 0 1.138-.428 1.138-1.01V1.01c0-.558-.494-1.01-1.138-1.01H1.137zm0 10.003c-.627 0-1.137.428-1.137 1.01v1.98c0 .557.494 1.01 1.139 1.01H48.81c.628 0 1.138-.428 1.138-1.01v-1.98c0-.558-.494-1.01-1.138-1.01H1.137zm0 10.002C.51 20.005 0 20.434 0 21.016v1.981c0 .557.494 1.01 1.139 1.01H48.81c.628 0 1.138-.428 1.138-1.01v-1.981c0-.558-.494-1.011-1.138-1.011H1.137z"/></symbol><symbol id="icon-menu-cross" viewBox="0 0 23.867 23.867"><path fill="#FFF" d="M15.087 11.933l8.56-8.559a.75.75 0 0 0 0-1.061L21.554.22a.747.747 0 0 0-1.06 0l-8.561 8.56L3.373.22a.771.771 0 0 0-1.061 0L.22 2.313a.75.75 0 0 0 0 1.061l8.56 8.559-8.56 8.559a.751.751 0 0 0 0 1.062l2.093 2.094a.744.744 0 0 0 1.06 0l8.561-8.56 8.56 8.56a.746.746 0 0 0 1.06 0l2.093-2.094a.751.751 0 0 0 0-1.062l-8.56-8.559z"/></symbol><symbol id="icon-tick" viewBox="0 0 32.666 22.742"><path d="M32.666 1.414L31.252 0 11.338 19.914 1.414 9.989 0 11.403l9.924 9.925 1.414 1.414h.001l1.414-1.414h-.001z"/></symbol></svg>