<svg xmlns="http://www.w3.org/2000/svg" width="20" height="20" viewBox="0 0 20 20">
  <defs>
    <style>
      .cls-1 {
        fill: #fff;
        fill-rule: evenodd;
      }
    </style>
  </defs>
  <path id="Чербокс_вкл._" data-name="Чербокс вкл. " class="cls-1" d="M197.146,290.014h11.708a4.159,4.159,0,0,1,4.16,4.16v11.651a4.16,4.16,0,0,1-4.16,4.161H197.146a4.161,4.161,0,0,1-4.161-4.161V294.174A4.16,4.16,0,0,1,197.146,290.014ZM197,291h12a3,3,0,0,1,3,3v12a3,3,0,0,1-3,3H197a3,3,0,0,1-3-3V294A3,3,0,0,1,197,291Zm12.369,5.955-5.93,5.931h0l-1.765,1.766v0l0,0-1.765-1.766h0l-3.069-3.07,1.765-1.765,3.07,3.07,5.93-5.931Z" transform="translate(-193 -290)"/>
</svg>
